<svg version="1.2" xmlns="http://www.w3.org/2000/svg" viewBox="0 0 1522 889" width="1522" height="889">
	<title>logo-up-svg</title>
	<style>
		.s0 { fill: #db5200 } 
	</style>
	<g id="logo">
		<g id="black">
			<path id="패스_22" class="s0" d="m1304.1 0.4c-6.8 62.5-21.2 124-43 183-21.7 59-50.6 115.2-85.9 167.2-35.4 52-77 99.5-124 141.4-46.9 41.9-98.8 78-154.5 107.3-1.2 0.7-2.7 1-4.2 0.6-1.4-0.3-2.7-1.1-3.6-2.3-0.8-1.3-1.2-2.7-1-4.2 0.2-1.5 1-2.8 2.2-3.8 43.7-35.9 83.6-76.4 118.9-120.6 35.3-44.3 66-92.1 91.4-142.7 25.4-50.6 45.4-103.7 59.8-158.5 14.3-54.7 22.9-110.9 25.6-167.4h-218.3c-6.7 48.6-19.3 96.2-37.6 141.8-18.2 45.6-41.9 88.8-70.5 128.7-28.6 39.9-62 76.2-99.4 108-37.3 31.8-78.5 59-122.4 81-1.3 0.6-2.7 0.8-4.1 0.4-1.3-0.4-2.5-1.2-3.3-2.4-0.8-1.2-1.2-2.6-1-4 0.2-1.4 0.8-2.7 1.9-3.6 32.2-28.3 61.6-59.7 87.7-93.8 26.1-34 48.7-70.6 67.6-109.1 18.8-38.5 33.8-78.8 44.7-120.3 11-41.4 17.7-83.9 20.3-126.7h-218.9c-4.3 22.1-10.1 43.8-17.5 65-7.3 21.2-16.2 41.9-26.6 61.8-10.3 20-22.1 39.1-35.2 57.4-13.1 18.3-27.5 35.6-43 51.7-147.9 161.8-386.7 179.8-502.6 170.6 0 0-5.4-0.8-7.1 3.5-1.8 4.4 3.3 7.6 3.3 7.6q81.5 46.7 161.5 96 79.9 49.3 158.1 101.3 78.2 52 154.7 106.6 76.4 54.6 151 111.7c13.7 11.5 28.7 21.4 44.7 29.5 16 8.1 32.9 14.3 50.3 18.6 17.4 4.2 35.2 6.4 53.2 6.6 17.9 0.1 35.8-1.8 53.3-5.7 435.3-102 688.7-552 691.3-882.2z"/>
		</g>
	</g>
</svg>